<svg width="41" height="49" viewBox="0 0 41 49" fill="none" xmlns="http://www.w3.org/2000/svg">
<path d="M32.8597 14.6608C35.9217 12.544 32.8597 4.8608 32.8597 4.8608L41 9.8V19.6L24.7195 29.5568V19.6C24.7195 19.6 28.3772 17.7597 32.8597 14.6608Z" fill="white"/>
<path d="M32.8597 34.104C35.9217 31.9872 32.8597 24.304 32.8597 24.304L41 29.2432V39.0432L24.7195 49V39.0432C24.7195 39.0432 28.3772 37.2029 32.8597 34.104Z" fill="white"/>
<path d="M8.21494 19.7568L16.4299 24.9312V44.8448L8.21494 39.6704V19.7568Z" fill="white"/>
<path d="M24.6448 0L33.0185 4.95965L8.28945 20.0124L0 14.8176L24.6448 0Z" fill="white"/>
</svg>
