<svg width="24" height="25" viewBox="0 0 24 25" fill="none" xmlns="http://www.w3.org/2000/svg">
<path d="M3 12.5H8M3 12.5C3 17.4706 7.02944 21.5 12 21.5M3 12.5C3 7.52944 7.02944 3.5 12 3.5M8 12.5H16M8 12.5C8 17.4706 9.79086 21.5 12 21.5M8 12.5C8 7.52944 9.79086 3.5 12 3.5M16 12.5H21M16 12.5C16 7.52944 14.2091 3.5 12 3.5M16 12.5C16 17.4706 14.2091 21.5 12 21.5M21 12.5C21 7.52944 16.9706 3.5 12 3.5M21 12.5C21 17.4706 16.9706 21.5 12 21.5" stroke="#090B0F" stroke-width="2" stroke-linecap="round" stroke-linejoin="round"/>
</svg>
